<svg xmlns="http://www.w3.org/2000/svg" 
     width="8.5"
     height="14.851"
     viewBox="0 0 8.5 14.851">
  <path 
    id="back-arrow-black"
    d="M2.45,7.432a2.05,2.05,0,0,1,.269.184Q5.4,10.287,8.066,12.958a1.064,1.064,0,1,1-1.517,1.487q-1.932-1.94-3.865-3.87c-.8-.8-1.6-1.592-2.392-2.392a1.058,1.058,0,0,1,0-1.607Q3.423,3.443,6.554.319a1.066,1.066,0,0,1,1.82.4,1.052,1.052,0,0,1-.308,1.109C6.907,2.98,5.758,4.134,4.6,5.288,3.908,5.979,3.216,6.666,2.45,7.432Z"
    transform="translate(0.075 0.036)"
    fill="#333"/>
</svg>